<svg width="27" height="31" viewBox="0 0 27 31" fill="none" xmlns="http://www.w3.org/2000/svg">
<g id="Paper">
<path id="Fill 3" opacity="0.4" d="M23.997 10.9074C23.3009 10.9074 22.3789 10.892 21.231 10.892C18.4314 10.892 16.1294 8.57483 16.1294 5.74896V0.790957C16.1294 0.400915 15.818 0.0833321 15.4318 0.0833321H7.2773C3.47175 0.0833321 0.395874 3.20675 0.395874 7.03471V23.6462C0.395874 27.6622 3.6183 30.9167 7.59481 30.9167H19.738C23.5299 30.9167 26.6042 27.8133 26.6042 23.9823V11.6011C26.6042 11.2095 26.2943 10.8935 25.9066 10.895C25.2548 10.8997 24.4732 10.9074 23.997 10.9074Z" fill="white"/>
<path id="Fill 1" opacity="0.4" d="M19.7962 0.957918C19.3353 0.478459 18.5305 0.808376 18.5305 1.47283V5.53821C18.5305 7.24329 19.935 8.64621 21.6401 8.64621C22.7146 8.65854 24.2069 8.66163 25.4742 8.65854C26.1232 8.657 26.4531 7.88154 26.003 7.41288C24.3765 5.72167 21.4643 2.69075 19.7962 0.957918Z" fill="white"/>
<path id="Combined Shape" fill-rule="evenodd" clip-rule="evenodd" d="M8.83474 14.5559H14.0533C14.6869 14.5559 15.2018 14.0425 15.2018 13.4089C15.2018 12.7753 14.6869 12.2603 14.0533 12.2603H8.83474C8.20112 12.2603 7.68774 12.7753 7.68774 13.4089C7.68774 14.0425 8.20112 14.5559 8.83474 14.5559ZM8.8349 22.2553H17.2277C17.8614 22.2553 18.3763 21.7419 18.3763 21.1083C18.3763 20.4747 17.8614 19.9597 17.2277 19.9597H8.8349C8.20127 19.9597 7.6879 20.4747 7.6879 21.1083C7.6879 21.7419 8.20127 22.2553 8.8349 22.2553Z" fill="white"/>
</g>
</svg>
