<svg width="30" height="26" viewBox="0 0 30 26" fill="none" xmlns="http://www.w3.org/2000/svg">
<g id="2 User">
<path id="Fill 1" d="M11.2449 17.0485C5.62949 17.0485 0.833328 17.9159 0.833328 21.3829C0.833328 24.8527 5.59899 25.75 11.2449 25.75C16.8603 25.75 21.6564 24.8826 21.6564 21.4155C21.6564 17.9458 16.8908 17.0485 11.2449 17.0485Z" fill="white"/>
<path id="Fill 3" opacity="0.4" d="M11.2449 13.7435C15.0693 13.7435 18.1342 10.7421 18.1342 6.99675C18.1342 3.25142 15.0693 0.25 11.2449 0.25C7.42181 0.25 4.35559 3.25142 4.35559 6.99675C4.35559 10.7421 7.42181 13.7435 11.2449 13.7435Z" fill="white"/>
<path id="Fill 5" opacity="0.4" d="M20.9123 7.11907C20.9123 9.02635 20.3274 10.806 19.3016 12.2843C19.1949 12.4364 19.2891 12.6414 19.4749 12.6739C19.7327 12.716 19.9975 12.7418 20.2678 12.7472C22.9569 12.8165 25.3703 11.121 26.037 8.56751C27.0254 4.77874 24.1255 1.37686 20.4313 1.37686C20.0307 1.37686 19.6468 1.41759 19.2725 1.49225C19.2212 1.50311 19.1658 1.52754 19.138 1.57098C19.102 1.62664 19.1283 1.69859 19.1644 1.7461C20.2747 3.27057 20.9123 5.12626 20.9123 7.11907Z" fill="white"/>
<path id="Fill 7" d="M28.8537 17.4899C28.3616 16.4623 27.1737 15.7578 25.3661 15.4116C24.5136 15.208 22.2043 14.9188 20.0571 14.9595C20.0252 14.9636 20.0072 14.9853 20.0044 14.9989C20.0002 15.0206 20.0099 15.0532 20.0515 15.0763C21.044 15.5568 24.8796 17.6474 24.3972 22.0565C24.3764 22.2493 24.533 22.4122 24.7285 22.385C25.6725 22.2534 28.101 21.7416 28.8537 20.1506C29.271 19.309 29.271 18.3316 28.8537 17.4899Z" fill="white"/>
</g>
</svg>
