<svg width="24" height="24" viewBox="0 0 24 24" fill="none" xmlns="http://www.w3.org/2000/svg">
<g id="Calling">
<path id="Fill 1" opacity="0.4" d="M14.8214 4.40491C14.266 4.30232 13.7559 4.65674 13.6502 5.19887C13.5444 5.741 13.9 6.2703 14.4403 6.37639C16.0669 6.69351 17.3229 7.95264 17.6413 9.58486V9.58602C17.7319 10.0559 18.1455 10.3975 18.6219 10.3975C18.6858 10.3975 18.7497 10.3916 18.8148 10.38C19.355 10.2716 19.7106 9.74341 19.6048 9.20012C19.1296 6.76229 17.2532 4.87942 14.8214 4.40491Z" fill="white"/>
<path id="Fill 3" opacity="0.4" d="M14.7487 0.34258C14.4885 0.305272 14.2271 0.382219 14.0191 0.547772C13.8053 0.715657 13.6717 0.958157 13.6426 1.2298C13.5811 1.77893 13.9773 2.27559 14.5257 2.33738C18.3076 2.75942 21.2472 5.70556 21.6724 9.49929C21.7294 10.0076 22.1558 10.3912 22.6647 10.3912C22.703 10.3912 22.7402 10.3888 22.7785 10.3842C23.0446 10.355 23.2816 10.2233 23.4489 10.0134C23.6151 9.80358 23.6906 9.54243 23.6604 9.27544C23.1306 4.54203 19.4672 0.868385 14.7487 0.34258Z" fill="white"/>
<path id="Fill 6" d="M18.539 15.1185C17.7827 14.9576 17.1843 15.3074 16.6545 15.6129C16.1119 15.9276 15.0789 16.7612 14.4887 16.5467C11.4608 15.3062 8.61306 12.6655 7.3803 9.63896C7.16303 9.0362 7.9961 8.00208 8.30864 7.45646C8.61422 6.92715 8.95814 6.3244 8.80128 5.56659C8.65953 4.88456 6.82608 2.56098 6.17775 1.92559C5.74901 1.50588 5.31214 1.27503 4.86249 1.23656C3.17195 1.16544 1.28389 3.41207 0.952749 3.94953C0.122001 5.09558 0.127811 6.62053 0.966692 8.46959C2.98837 13.4362 10.6347 20.9315 15.6401 23.0208C16.5627 23.451 17.4085 23.6667 18.1672 23.6667C18.9097 23.6667 19.5708 23.4603 20.139 23.0511C20.5665 22.8051 22.9159 20.8313 22.8531 19.1023C22.8171 18.6616 22.5859 18.2209 22.1699 17.7942C21.5355 17.1425 19.2187 15.2619 18.539 15.1185Z" fill="white"/>
</g>
</svg>
